<?xml version="1.0" encoding="UTF-8"?>
<!DOCTYPE svg PUBLIC "-//W3C//DTD SVG 1.1//EN" "http://www.w3.org/Graphics/SVG/1.1/DTD/svg11.dtd">
<svg xmlns="http://www.w3.org/2000/svg" version="1.1" width="512px" height="512px" style="shape-rendering:geometricPrecision; text-rendering:geometricPrecision; image-rendering:optimizeQuality; fill-rule:evenodd; clip-rule:evenodd" xmlns:xlink="http://www.w3.org/1999/xlink">
<g><path style="opacity:1" fill="#228650" d="M -0.5,-0.5 C 170.167,-0.5 340.833,-0.5 511.5,-0.5C 511.5,170.167 511.5,340.833 511.5,511.5C 340.833,511.5 170.167,511.5 -0.5,511.5C -0.5,340.833 -0.5,170.167 -0.5,-0.5 Z"/></g>
<g><path style="opacity:1" fill="#fdfefd" d="M 337.5,66.5 C 357.052,64.9066 370.219,73.24 377,91.5C 380.006,112.479 371.506,126.312 351.5,133C 331.566,134.951 318.399,126.451 312,107.5C 309.687,87.0017 318.187,73.335 337.5,66.5 Z"/></g>
<g><path style="opacity:1" fill="#fdfefe" d="M 280.5,133.5 C 295.176,133.866 308.843,137.699 321.5,145C 324.372,147.537 326.872,150.37 329,153.5C 335.274,166.38 341.274,179.38 347,192.5C 348.377,194.754 349.877,196.92 351.5,199C 353.167,199.667 354.833,199.667 356.5,199C 377.955,188.852 399.288,178.519 420.5,168C 434.112,167.721 437.612,173.555 431,185.5C 409.654,208.013 387.821,230.013 365.5,251.5C 352.851,260.274 341.018,259.274 330,248.5C 325.544,242.375 320.711,236.542 315.5,231C 312.97,229.578 310.303,229.245 307.5,230C 241.789,288.198 176.456,346.865 111.5,406C 105.953,408.789 100.287,409.122 94.5,407C 91.6403,403.319 90.8069,399.152 92,394.5C 147.219,312.617 203.219,231.283 260,150.5C 265.248,142.737 272.081,137.071 280.5,133.5 Z"/></g>
<g><path style="opacity:1" fill="#fcfdfd" d="M 227.5,144.5 C 236.156,142.704 239.989,146.037 239,154.5C 231.697,166.943 223.53,178.776 214.5,190C 185.952,195.648 157.285,199.981 128.5,203C 120.182,197.434 119.515,191.101 126.5,184C 159.753,169.532 193.42,156.365 227.5,144.5 Z"/></g>
<g><path style="opacity:1" fill="#fdfefd" d="M 308.5,251.5 C 310.564,251.687 312.564,252.187 314.5,253C 326.173,263.997 336.339,276.164 345,289.5C 346.091,295.097 345.424,300.43 343,305.5C 339.5,310.333 335.333,314.5 330.5,318C 308.027,335.07 285.027,351.404 261.5,367C 254.606,371.534 247.273,372.534 239.5,370C 235.683,366.385 235.517,362.552 239,358.5C 252,342.833 265,327.167 278,311.5C 278.552,308.581 277.885,305.914 276,303.5C 272.63,300.465 269.63,297.132 267,293.5C 266.333,291.833 266.333,290.167 267,288.5C 280.354,275.582 294.187,263.249 308.5,251.5 Z"/></g>
</svg>
